<svg width="300" height="200" viewBox="0 0 300 200" xmlns="http://www.w3.org/2000/svg">
  <defs>
    <linearGradient id="suvGradient" x1="0%" y1="0%" x2="0%" y2="100%">
      <stop offset="0%" style="stop-color:#34495e;stop-opacity:1" />
      <stop offset="100%" style="stop-color:#2c3e50;stop-opacity:1" />
    </linearGradient>
    <linearGradient id="windowGradient2" x1="0%" y1="0%" x2="0%" y2="100%">
      <stop offset="0%" style="stop-color:#85c1e9;stop-opacity:0.8" />
      <stop offset="100%" style="stop-color:#5dade2;stop-opacity:0.6" />
    </linearGradient>
  </defs>
  
  <!-- Shadow -->
  <ellipse cx="150" cy="185" rx="130" ry="10" fill="#000000" opacity="0.2"/>
  
  <!-- Car Body (SUV Style) -->
  <path d="M45 110 L255 110 L265 120 L265 150 L255 160 L45 160 L35 150 L35 120 Z" fill="url(#suvGradient)" stroke="#1b2631" stroke-width="1"/>
  
  <!-- Car Roof -->
  <rect x="60" y="75" width="180" height="35" rx="8" fill="url(#suvGradient)" stroke="#1b2631" stroke-width="1"/>
  
  <!-- Windows -->
  <rect x="70" y="85" width="35" height="20" rx="3" fill="url(#windowGradient2)" stroke="#3498db" stroke-width="1"/>
  <rect x="115" y="85" width="70" height="20" rx="3" fill="url(#windowGradient2)" stroke="#3498db" stroke-width="1"/>
  <rect x="195" y="85" width="35" height="20" rx="3" fill="url(#windowGradient2)" stroke="#3498db" stroke-width="1"/>
  
  <!-- Window Frames -->
  <rect x="70" y="85" width="35" height="20" rx="3" fill="none" stroke="#2c3e50" stroke-width="1"/>
  <rect x="115" y="85" width="70" height="20" rx="3" fill="none" stroke="#2c3e50" stroke-width="1"/>
  <rect x="195" y="85" width="35" height="20" rx="3" fill="none" stroke="#2c3e50" stroke-width="1"/>
  
  <!-- Wheels -->
  <circle cx="85" cy="160" r="20" fill="#2c3e50"/>
  <circle cx="85" cy="160" r="14" fill="#34495e"/>
  <circle cx="85" cy="160" r="8" fill="#7f8c8d"/>
  
  <circle cx="215" cy="160" r="20" fill="#2c3e50"/>
  <circle cx="215" cy="160" r="14" fill="#34495e"/>
  <circle cx="215" cy="160" r="8" fill="#7f8c8d"/>
  
  <!-- Headlights -->
  <ellipse cx="260" cy="125" rx="7" ry="12" fill="#f8c471" stroke="#f39c12" stroke-width="1"/>
  <ellipse cx="260" cy="145" rx="7" ry="12" fill="#f8c471" stroke="#f39c12" stroke-width="1"/>
  
  <!-- Grille -->
  <rect x="250" y="120" width="15" height="30" fill="#1b2631" rx="3"/>
  <line x1="253" y1="125" x2="253" y2="145" stroke="#7f8c8d" stroke-width="0.5"/>
  <line x1="257" y1="125" x2="257" y2="145" stroke="#7f8c8d" stroke-width="0.5"/>
  <line x1="261" y1="125" x2="261" y2="145" stroke="#7f8c8d" stroke-width="0.5"/>
  
  <!-- Door Handles -->
  <rect x="95" y="125" width="6" height="3" rx="1" fill="#95a5a6"/>
  <rect x="155" y="125" width="6" height="3" rx="1" fill="#95a5a6"/>
  <rect x="200" y="125" width="6" height="3" rx="1" fill="#95a5a6"/>
  
  <!-- Roof Rails -->
  <rect x="65" y="72" width="170" height="4" rx="2" fill="#95a5a6"/>
  <rect x="65" y="106" width="170" height="4" rx="2" fill="#95a5a6"/>
  
  <!-- Side Mirror -->
  <ellipse cx="55" cy="100" rx="4" ry="3" fill="#34495e"/>
</svg>
